REM MD5 b96c0a790fec8d4f6cd385ce64a0be42
FILE "SuperLite 1500 Series - Suudoku 4 (Japan).bin" BINARY
  TRACK 01 MODE2/2352
    INDEX 01 00:00:00
  TRACK 02 AUDIO
    INDEX 00 00:10:07
    INDEX 01 00:12:07
  TRACK 03 AUDIO
    INDEX 00 02:14:16
    INDEX 01 02:16:16
  TRACK 04 AUDIO
    INDEX 00 06:17:38
    INDEX 01 06:19:38
  TRACK 05 AUDIO
    INDEX 00 16:21:05
    INDEX 01 16:23:05
  TRACK 06 AUDIO
    INDEX 00 26:24:64
    INDEX 01 26:26:64
REM LEADOUT 36:30:02
